<svg width="29" height="28" viewBox="0 0 29 28" fill="none" xmlns="http://www.w3.org/2000/svg">
<path d="M14.5 0C6.49358 0 0 6.42697 0 14.3539C0 20.696 4.15425 26.0763 9.91679 27.9746C10.6406 28.1074 10.875 27.6624 10.875 27.2844V24.6122C6.84158 25.4806 6.00179 22.9184 6.00179 22.9184C5.34204 21.2594 4.39108 20.818 4.39108 20.818C3.07521 19.9268 4.49137 19.946 4.49137 19.946C5.94742 20.0465 6.7135 21.4256 6.7135 21.4256C8.00642 23.6194 10.1053 22.9854 10.933 22.6182C11.0623 21.6912 11.4381 21.0572 11.8538 20.6996C8.63354 20.3347 5.24779 19.1039 5.24779 13.6051C5.24779 12.037 5.8145 10.7571 6.74129 9.7523C6.59146 9.38986 6.09483 7.92935 6.88267 5.95329C6.88267 5.95329 8.10067 5.56813 10.8714 7.42457C12.0278 7.10639 13.2675 6.9473 14.5 6.94132C15.7325 6.9473 16.9735 7.10639 18.1322 7.42457C20.9005 5.56813 22.1161 5.95329 22.1161 5.95329C22.9052 7.93054 22.4085 9.39106 22.2587 9.7523C23.1891 10.7571 23.751 12.0382 23.751 13.6051C23.751 19.1182 20.3592 20.3323 17.1305 20.6876C17.6501 21.1326 18.125 22.0058 18.125 23.3455V27.2844C18.125 27.666 18.357 28.1146 19.0929 27.9734C24.8506 26.0727 29 20.6936 29 14.3539C29 6.42697 22.5076 0 14.5 0Z" fill="black"/>
</svg>
