<svg width="30" height="30" viewBox="0 0 30 30" fill="none" xmlns="http://www.w3.org/2000/svg">
<g clip-path="url(#clip0)">
<path d="M29.9999 15.3445C29.9999 14.3249 29.9156 13.2997 29.7357 12.2966H15.3008V18.0728H23.567C23.2239 19.9357 22.1218 21.5837 20.5079 22.6309V26.3789H25.4395C28.3355 23.7663 29.9999 19.9082 29.9999 15.3445Z" fill="#4285F4"/>
<path d="M15.301 30C19.4284 30 22.9092 28.6717 25.4453 26.3788L20.5137 22.6309C19.1416 23.5458 17.3703 24.0639 15.3066 24.0639C11.3141 24.0639 7.9289 21.4238 6.71428 17.8743H1.62524V21.738C4.22318 26.8032 9.51465 30 15.301 30Z" fill="#34A853"/>
<path d="M6.70841 17.8744C6.06736 16.0114 6.06736 13.9941 6.70841 12.1312V8.26752H1.625C-0.545573 12.506 -0.545573 17.4996 1.625 21.738L6.70841 17.8744Z" fill="#FBBC04"/>
<path d="M15.301 5.93604C17.4828 5.90297 19.5915 6.70767 21.1716 8.1848L25.5409 3.90223C22.7743 1.35584 19.1023 -0.0441201 15.301 -2.67652e-05C9.51465 -2.67652e-05 4.22318 3.19674 1.62524 8.26747L6.70865 12.1312C7.91765 8.57613 11.3085 5.93604 15.301 5.93604Z" fill="#EA4335"/>
</g>
<defs>
<clipPath id="clip0">
<rect width="30" height="30" fill="white"/>
</clipPath>
</defs>
</svg>
