<svg width="38" height="38" viewBox="0 0 38 38" fill="none" xmlns="http://www.w3.org/2000/svg">
<path d="M19 0C8.512 0 0 8.512 0 19C0 29.488 8.512 38 19 38C29.488 38 38 29.488 38 19C38 8.512 29.488 0 19 0ZM19 5.7C22.154 5.7 24.7 8.246 24.7 11.4C24.7 14.554 22.154 17.1 19 17.1C15.846 17.1 13.3 14.554 13.3 11.4C13.3 8.246 15.846 5.7 19 5.7ZM19 32.68C14.25 32.68 10.051 30.248 7.6 26.562C7.657 22.781 15.2 20.71 19 20.71C22.781 20.71 30.343 22.781 30.4 26.562C27.949 30.248 23.75 32.68 19 32.68Z" fill="#003848"/>
</svg>
