<svg width="22" height="25" viewBox="0 0 22 25" fill="none" xmlns="http://www.w3.org/2000/svg">
<path d="M6.97875 24.6312L10.2846 22.3792L3.52858 12.4617L0.222752 14.7137L6.97875 24.6312ZM18.9678 3.15416C18.3485 2.24505 17.098 2.00794 16.1889 2.62724L10.9739 6.17978L9.18617 1.86802L9.0308 1.58666C8.79997 1.24781 8.44553 1.02947 8.07038 0.958338L6.60319 0.687338L4.87527 9.83823C4.77216 10.3441 4.87184 10.8812 5.18149 11.3357L10.8115 19.6003C11.4308 20.5094 12.6813 20.7465 13.5904 20.1272L21.0285 15.0602C21.7145 14.5929 22.0198 13.7799 21.8623 13.016L20.3891 5.4892C20.334 5.24845 20.2402 5.02195 20.0938 4.80707L18.9678 3.15416Z" fill="#003848"/>
</svg>
