<svg width="1919" height="770" viewBox="0 0 1919 770" fill="none" xmlns="http://www.w3.org/2000/svg">
<path d="M1919 0V770C1717.48 765.893 1515.95 761.787 1367 759.733C1218.05 757.68 1121.67 757.68 988.333 737.147C855 716.613 684.714 675.547 513.667 677.6C342.619 679.653 170.809 724.827 -1 770V0L1919 0Z" fill="url(#paint0_linear)" fill-opacity="0.4"/>
<path d="M1919 0V513.485C1762.86 462.504 1606.71 411.522 1469.67 429.274C1332.62 447.026 1214.67 533.511 1029.67 542.24C844.667 550.97 592.619 481.943 409.667 464.191C226.714 446.439 112.857 479.962 -1 513.485V0L1919 0Z" fill="url(#paint1_linear)" fill-opacity="0.6"/>
<path d="M1919 0V256.535C1744.29 251.184 1569.57 245.834 1400.33 260.639C1231.1 275.445 1067.33 310.407 927 311.946C786.667 313.485 669.762 281.602 519 266.796C368.238 251.99 183.619 254.263 -1 256.535V0L1919 0Z" fill="url(#paint2_linear)"/>
<defs>
<linearGradient id="paint0_linear" x1="1919" y1="770" x2="-1" y2="770" gradientUnits="userSpaceOnUse">
<stop offset="0.05" stop-color="#95E3F8"/>
<stop offset="0.95" stop-color="#32DED4"/>
</linearGradient>
<linearGradient id="paint1_linear" x1="1919" y1="543" x2="-1" y2="543" gradientUnits="userSpaceOnUse">
<stop offset="0.05" stop-color="#95E3F8"/>
<stop offset="0.95" stop-color="#32DED4"/>
</linearGradient>
<linearGradient id="paint2_linear" x1="1919" y1="312" x2="-1" y2="312" gradientUnits="userSpaceOnUse">
<stop offset="0.05" stop-color="#95E3F8"/>
<stop offset="0.95" stop-color="#32DED4"/>
</linearGradient>
</defs>
</svg>
