<svg width="1920" height="1170" viewBox="0 0 1920 1170" fill="none" xmlns="http://www.w3.org/2000/svg">
<path d="M1920 0V1170C1718.48 1163.76 1516.95 1157.52 1368 1154.4C1219.05 1151.28 1122.67 1151.28 989.333 1120.08C856 1088.88 685.714 1026.48 514.667 1029.6C343.619 1032.72 171.809 1101.36 0 1170V0L1920 0Z" fill="#95E3F8" fill-opacity="0.4"/>
<path d="M1920 0V780.157C1763.86 702.699 1607.71 625.24 1470.67 652.211C1333.62 679.183 1215.67 810.583 1030.67 823.846C845.667 837.109 593.619 732.233 410.667 705.262C227.714 678.291 113.857 729.224 0 780.157V0L1920 0Z" fill="#95E3F8" fill-opacity="0.533333"/>
<path d="M1920 -3.05176e-05V389.735C1745.29 381.607 1570.57 373.478 1401.33 395.971C1232.1 418.464 1068.33 471.58 928 473.918C787.667 476.257 670.762 427.818 520 405.325C369.238 382.832 184.619 386.283 0 389.735V-3.05176e-05L1920 -3.05176e-05Z" fill="#95E3F8"/>
</svg>
